<svg width="15" height="28" viewBox="0 0 15 28" fill="none" xmlns="http://www.w3.org/2000/svg">
<path d="M12.66 28C12.3612 28.001 12.066 27.9351 11.796 27.807C11.5261 27.679 11.2882 27.492 11.1 27.26L1.44 15.26C1.14584 14.9021 0.985024 14.4532 0.985024 13.99C0.985024 13.5267 1.14584 13.0779 1.44 12.72L11.44 0.72C11.7795 0.311567 12.2673 0.0547181 12.7962 0.00595865C13.325 -0.0428008 13.8516 0.120523 14.26 0.46C14.6684 0.799477 14.9253 1.2873 14.974 1.81615C15.0228 2.34501 14.8595 2.87157 14.52 3.28L5.58 14L14.22 24.72C14.4646 25.0136 14.6199 25.3711 14.6677 25.7501C14.7154 26.1292 14.6536 26.5141 14.4895 26.8591C14.3254 27.2042 14.0659 27.495 13.7416 27.6972C13.4174 27.8994 13.0421 28.0045 12.66 28Z" fill="white"/>
</svg>
